<mxfile host="app.diagrams.net" modified="2023-10-10T12:08:07.117Z" agent="Mozilla/5.0 (Windows NT 10.0; Win64; x64) AppleWebKit/537.36 (KHTML, like Gecko) Chrome/117.0.0.0 Safari/537.36 Edg/117.0.2045.60" etag="L9uh2102zoZb_r-QAhRw" version="22.0.4" type="github" pages="3">
  <diagram name="Data Architecture" id="ctzMrAQ5W3zzFSxHdsyH">
    <mxGraphModel dx="1678" dy="933" grid="1" gridSize="10" guides="1" tooltips="1" connect="1" arrows="1" fold="1" page="1" pageScale="1" pageWidth="1400" pageHeight="850" math="0" shadow="0">
      <root>
        <mxCell id="0" />
        <mxCell id="1" parent="0" />
        <mxCell id="oZp67QmK9EEdHLJoPUvL-60" value="" style="shape=table;startSize=0;container=1;collapsible=0;childLayout=tableLayout;rounded=0;" parent="1" vertex="1">
          <mxGeometry x="1190" y="670" width="200" height="160" as="geometry" />
        </mxCell>
        <mxCell id="oZp67QmK9EEdHLJoPUvL-61" value="" style="shape=tableRow;horizontal=0;startSize=0;swimlaneHead=0;swimlaneBody=0;strokeColor=inherit;top=0;left=0;bottom=0;right=0;collapsible=0;dropTarget=0;fillColor=none;points=[[0,0.5],[1,0.5]];portConstraint=eastwest;rounded=0;" parent="oZp67QmK9EEdHLJoPUvL-60" vertex="1">
          <mxGeometry width="200" height="40" as="geometry" />
        </mxCell>
        <mxCell id="oZp67QmK9EEdHLJoPUvL-62" value="" style="shape=partialRectangle;html=1;whiteSpace=wrap;connectable=0;strokeColor=inherit;overflow=hidden;fillColor=none;top=0;left=0;bottom=0;right=0;pointerEvents=1;rounded=0;" parent="oZp67QmK9EEdHLJoPUvL-61" vertex="1">
          <mxGeometry width="70" height="40" as="geometry">
            <mxRectangle width="70" height="40" as="alternateBounds" />
          </mxGeometry>
        </mxCell>
        <mxCell id="oZp67QmK9EEdHLJoPUvL-63" value="Jupyter Notebook" style="shape=partialRectangle;html=1;whiteSpace=wrap;connectable=0;strokeColor=inherit;overflow=hidden;fillColor=none;top=0;left=0;bottom=0;right=0;pointerEvents=1;rounded=0;" parent="oZp67QmK9EEdHLJoPUvL-61" vertex="1">
          <mxGeometry x="70" width="130" height="40" as="geometry">
            <mxRectangle width="130" height="40" as="alternateBounds" />
          </mxGeometry>
        </mxCell>
        <mxCell id="oZp67QmK9EEdHLJoPUvL-64" value="" style="shape=tableRow;horizontal=0;startSize=0;swimlaneHead=0;swimlaneBody=0;strokeColor=inherit;top=0;left=0;bottom=0;right=0;collapsible=0;dropTarget=0;fillColor=none;points=[[0,0.5],[1,0.5]];portConstraint=eastwest;rounded=0;" parent="oZp67QmK9EEdHLJoPUvL-60" vertex="1">
          <mxGeometry y="40" width="200" height="40" as="geometry" />
        </mxCell>
        <mxCell id="oZp67QmK9EEdHLJoPUvL-65" value="" style="shape=partialRectangle;html=1;whiteSpace=wrap;connectable=0;strokeColor=inherit;overflow=hidden;fillColor=none;top=0;left=0;bottom=0;right=0;pointerEvents=1;rounded=0;" parent="oZp67QmK9EEdHLJoPUvL-64" vertex="1">
          <mxGeometry width="70" height="40" as="geometry">
            <mxRectangle width="70" height="40" as="alternateBounds" />
          </mxGeometry>
        </mxCell>
        <mxCell id="oZp67QmK9EEdHLJoPUvL-66" value="Http req" style="shape=partialRectangle;html=1;whiteSpace=wrap;connectable=0;strokeColor=inherit;overflow=hidden;fillColor=none;top=0;left=0;bottom=0;right=0;pointerEvents=1;rounded=0;" parent="oZp67QmK9EEdHLJoPUvL-64" vertex="1">
          <mxGeometry x="70" width="130" height="40" as="geometry">
            <mxRectangle width="130" height="40" as="alternateBounds" />
          </mxGeometry>
        </mxCell>
        <mxCell id="oZp67QmK9EEdHLJoPUvL-96" value="" style="shape=tableRow;horizontal=0;startSize=0;swimlaneHead=0;swimlaneBody=0;strokeColor=inherit;top=0;left=0;bottom=0;right=0;collapsible=0;dropTarget=0;fillColor=none;points=[[0,0.5],[1,0.5]];portConstraint=eastwest;rounded=0;" parent="oZp67QmK9EEdHLJoPUvL-60" vertex="1">
          <mxGeometry y="80" width="200" height="40" as="geometry" />
        </mxCell>
        <mxCell id="oZp67QmK9EEdHLJoPUvL-97" value="" style="shape=partialRectangle;html=1;whiteSpace=wrap;connectable=0;strokeColor=inherit;overflow=hidden;fillColor=none;top=0;left=0;bottom=0;right=0;pointerEvents=1;rounded=0;" parent="oZp67QmK9EEdHLJoPUvL-96" vertex="1">
          <mxGeometry width="70" height="40" as="geometry">
            <mxRectangle width="70" height="40" as="alternateBounds" />
          </mxGeometry>
        </mxCell>
        <mxCell id="oZp67QmK9EEdHLJoPUvL-98" value="Python Library" style="shape=partialRectangle;html=1;whiteSpace=wrap;connectable=0;strokeColor=inherit;overflow=hidden;fillColor=none;top=0;left=0;bottom=0;right=0;pointerEvents=1;rounded=0;" parent="oZp67QmK9EEdHLJoPUvL-96" vertex="1">
          <mxGeometry x="70" width="130" height="40" as="geometry">
            <mxRectangle width="130" height="40" as="alternateBounds" />
          </mxGeometry>
        </mxCell>
        <mxCell id="oZp67QmK9EEdHLJoPUvL-67" value="" style="shape=tableRow;horizontal=0;startSize=0;swimlaneHead=0;swimlaneBody=0;strokeColor=inherit;top=0;left=0;bottom=0;right=0;collapsible=0;dropTarget=0;fillColor=none;points=[[0,0.5],[1,0.5]];portConstraint=eastwest;rounded=0;" parent="oZp67QmK9EEdHLJoPUvL-60" vertex="1">
          <mxGeometry y="120" width="200" height="40" as="geometry" />
        </mxCell>
        <mxCell id="oZp67QmK9EEdHLJoPUvL-68" value="" style="shape=partialRectangle;html=1;whiteSpace=wrap;connectable=0;strokeColor=inherit;overflow=hidden;fillColor=none;top=0;left=0;bottom=0;right=0;pointerEvents=1;rounded=0;" parent="oZp67QmK9EEdHLJoPUvL-67" vertex="1">
          <mxGeometry width="70" height="40" as="geometry">
            <mxRectangle width="70" height="40" as="alternateBounds" />
          </mxGeometry>
        </mxCell>
        <mxCell id="oZp67QmK9EEdHLJoPUvL-69" value="Relational" style="shape=partialRectangle;html=1;whiteSpace=wrap;connectable=0;strokeColor=inherit;overflow=hidden;fillColor=none;top=0;left=0;bottom=0;right=0;pointerEvents=1;rounded=0;" parent="oZp67QmK9EEdHLJoPUvL-67" vertex="1">
          <mxGeometry x="70" width="130" height="40" as="geometry">
            <mxRectangle width="130" height="40" as="alternateBounds" />
          </mxGeometry>
        </mxCell>
        <mxCell id="oZp67QmK9EEdHLJoPUvL-37" value="" style="rounded=0;whiteSpace=wrap;html=1;absoluteArcSize=1;arcSize=14;strokeWidth=2;fillColor=#d5e8d4;strokeColor=#82b366;" parent="1" vertex="1">
          <mxGeometry x="723.2" y="132" width="320" height="160" as="geometry" />
        </mxCell>
        <mxCell id="oZp67QmK9EEdHLJoPUvL-35" value="" style="rounded=0;whiteSpace=wrap;html=1;absoluteArcSize=1;arcSize=14;strokeWidth=2;fillColor=#d5e8d4;strokeColor=#82b366;" parent="1" vertex="1">
          <mxGeometry x="203" y="306" width="320" height="160" as="geometry" />
        </mxCell>
        <mxCell id="oZp67QmK9EEdHLJoPUvL-1" value="" style="sketch=0;pointerEvents=1;shadow=0;dashed=0;html=1;fillColor=none;labelPosition=center;verticalLabelPosition=bottom;verticalAlign=top;outlineConnect=0;align=center;shape=mxgraph.office.sites.website_public;rounded=0;" parent="1" vertex="1">
          <mxGeometry x="20" y="150" width="110" height="100" as="geometry" />
        </mxCell>
        <mxCell id="oZp67QmK9EEdHLJoPUvL-71" style="edgeStyle=orthogonalEdgeStyle;rounded=0;orthogonalLoop=1;jettySize=auto;html=1;fillColor=#647687;strokeColor=#314354;strokeWidth=2;" parent="1" source="oZp67QmK9EEdHLJoPUvL-5" target="oZp67QmK9EEdHLJoPUvL-35" edge="1">
          <mxGeometry relative="1" as="geometry" />
        </mxCell>
        <mxCell id="oZp67QmK9EEdHLJoPUvL-5" value="" style="sketch=0;outlineConnect=0;fontColor=#ffffff;fillColor=#60a917;strokeColor=#2D7600;dashed=0;verticalLabelPosition=bottom;verticalAlign=top;align=center;html=1;fontSize=12;fontStyle=0;aspect=fixed;pointerEvents=1;shape=mxgraph.aws4.sagemaker_notebook;rounded=0;" parent="1" vertex="1">
          <mxGeometry x="64.31" y="352" width="56.3" height="67" as="geometry" />
        </mxCell>
        <mxCell id="oZp67QmK9EEdHLJoPUvL-39" style="edgeStyle=orthogonalEdgeStyle;rounded=0;orthogonalLoop=1;jettySize=auto;html=1;fillColor=#647687;strokeColor=#314354;strokeWidth=2;" parent="1" source="oZp67QmK9EEdHLJoPUvL-7" target="oZp67QmK9EEdHLJoPUvL-37" edge="1">
          <mxGeometry relative="1" as="geometry">
            <mxPoint x="770" y="223" as="targetPoint" />
          </mxGeometry>
        </mxCell>
        <mxCell id="oZp67QmK9EEdHLJoPUvL-7" value="" style="image;sketch=0;aspect=fixed;html=1;points=[];align=center;fontSize=12;image=img/lib/mscae/Azure_Database_for_PostgreSQL_servers.svg;rounded=0;" parent="1" vertex="1">
          <mxGeometry x="577" y="157" width="83.6" height="110" as="geometry" />
        </mxCell>
        <mxCell id="oZp67QmK9EEdHLJoPUvL-8" value="ETL" style="swimlane;childLayout=stackLayout;horizontal=1;fillColor=none;horizontalStack=1;resizeParent=1;resizeParentMax=0;resizeLast=0;collapsible=0;strokeColor=none;stackBorder=10;stackSpacing=-12;resizable=1;align=center;points=[];whiteSpace=wrap;html=1;startSize=23;rounded=0;" parent="1" vertex="1">
          <mxGeometry x="212" y="338" width="296" height="100" as="geometry" />
        </mxCell>
        <mxCell id="oZp67QmK9EEdHLJoPUvL-9" value="Extract" style="shape=step;perimeter=stepPerimeter;fixedSize=1;points=[];whiteSpace=wrap;html=1;rounded=0;" parent="oZp67QmK9EEdHLJoPUvL-8" vertex="1">
          <mxGeometry x="10" y="33" width="100" height="57" as="geometry" />
        </mxCell>
        <mxCell id="oZp67QmK9EEdHLJoPUvL-10" value="Transform" style="shape=step;perimeter=stepPerimeter;fixedSize=1;points=[];whiteSpace=wrap;html=1;rounded=0;" parent="oZp67QmK9EEdHLJoPUvL-8" vertex="1">
          <mxGeometry x="98" y="33" width="100" height="57" as="geometry" />
        </mxCell>
        <mxCell id="oZp67QmK9EEdHLJoPUvL-11" value="Load" style="shape=step;perimeter=stepPerimeter;fixedSize=1;points=[];whiteSpace=wrap;html=1;rounded=0;" parent="oZp67QmK9EEdHLJoPUvL-8" vertex="1">
          <mxGeometry x="186" y="33" width="100" height="57" as="geometry" />
        </mxCell>
        <mxCell id="oZp67QmK9EEdHLJoPUvL-13" style="edgeStyle=orthogonalEdgeStyle;rounded=0;orthogonalLoop=1;jettySize=auto;html=1;exitX=1;exitY=0.5;exitDx=0;exitDy=0;fillColor=#647687;strokeColor=#314354;strokeWidth=2;" parent="1" source="oZp67QmK9EEdHLJoPUvL-35" target="oZp67QmK9EEdHLJoPUvL-7" edge="1">
          <mxGeometry relative="1" as="geometry">
            <mxPoint x="520" y="390" as="sourcePoint" />
            <mxPoint x="598.8" y="346.0999999999999" as="targetPoint" />
          </mxGeometry>
        </mxCell>
        <mxCell id="oZp67QmK9EEdHLJoPUvL-14" value="" style="endArrow=none;html=1;rounded=0;entryX=0.5;entryY=0;entryDx=0;entryDy=0;entryPerimeter=0;" parent="1" source="oZp67QmK9EEdHLJoPUvL-10" target="oZp67QmK9EEdHLJoPUvL-15" edge="1">
          <mxGeometry width="50" height="50" relative="1" as="geometry">
            <mxPoint x="620" y="390" as="sourcePoint" />
            <mxPoint x="460" y="520" as="targetPoint" />
          </mxGeometry>
        </mxCell>
        <mxCell id="oZp67QmK9EEdHLJoPUvL-15" value="" style="points=[[0.25,0,0],[0.5,0,0],[0.75,0,0],[1,0.25,0],[1,0.5,0],[1,0.75,0],[0.75,1,0],[0.5,1,0],[0.25,1,0],[0,0.75,0],[0,0.5,0],[0,0.25,0]];shape=mxgraph.bpmn.task;whiteSpace=wrap;rectStyle=rounded;size=10;html=1;container=1;expand=0;collapsible=0;taskMarker=abstract;isLoopSub=1;rounded=0;" parent="1" vertex="1">
          <mxGeometry x="249" y="508" width="220" height="80" as="geometry" />
        </mxCell>
        <mxCell id="oZp67QmK9EEdHLJoPUvL-18" value="Transform based on the Normalized Relational Model (NRM)" style="text;strokeColor=none;align=center;fillColor=none;html=1;verticalAlign=middle;whiteSpace=wrap;rounded=0;" parent="oZp67QmK9EEdHLJoPUvL-15" vertex="1">
          <mxGeometry x="9.166666666666666" y="7.272727272727273" width="201.66666666666666" height="65.45454545454545" as="geometry" />
        </mxCell>
        <mxCell id="oZp67QmK9EEdHLJoPUvL-17" value="" style="sketch=0;points=[[0.015,0.015,0],[0.985,0.015,0],[0.985,0.985,0],[0.015,0.985,0],[0.25,0,0],[0.5,0,0],[0.75,0,0],[1,0.25,0],[1,0.5,0],[1,0.75,0],[0.75,1,0],[0.5,1,0],[0.25,1,0],[0,0.75,0],[0,0.5,0],[0,0.25,0]];verticalLabelPosition=bottom;html=1;verticalAlign=top;aspect=fixed;align=center;pointerEvents=1;shape=mxgraph.cisco19.rect;prIcon=database_relational;fillColor=#FAFAFA;strokeColor=#005073;rounded=0;" parent="1" vertex="1">
          <mxGeometry x="555" y="141" width="50" height="50" as="geometry" />
        </mxCell>
        <mxCell id="oZp67QmK9EEdHLJoPUvL-19" value="ETL" style="swimlane;childLayout=stackLayout;horizontal=1;fillColor=none;horizontalStack=1;resizeParent=1;resizeParentMax=0;resizeLast=0;collapsible=0;strokeColor=none;stackBorder=10;stackSpacing=-12;resizable=1;align=center;points=[];whiteSpace=wrap;html=1;startSize=23;rounded=0;" parent="1" vertex="1">
          <mxGeometry x="740" y="167" width="296" height="100" as="geometry" />
        </mxCell>
        <mxCell id="oZp67QmK9EEdHLJoPUvL-20" value="Extract" style="shape=step;perimeter=stepPerimeter;fixedSize=1;points=[];whiteSpace=wrap;html=1;rounded=0;" parent="oZp67QmK9EEdHLJoPUvL-19" vertex="1">
          <mxGeometry x="10" y="33" width="100" height="57" as="geometry" />
        </mxCell>
        <mxCell id="oZp67QmK9EEdHLJoPUvL-21" value="Transform" style="shape=step;perimeter=stepPerimeter;fixedSize=1;points=[];whiteSpace=wrap;html=1;rounded=0;" parent="oZp67QmK9EEdHLJoPUvL-19" vertex="1">
          <mxGeometry x="98" y="33" width="100" height="57" as="geometry" />
        </mxCell>
        <mxCell id="oZp67QmK9EEdHLJoPUvL-22" value="Load" style="shape=step;perimeter=stepPerimeter;fixedSize=1;points=[];whiteSpace=wrap;html=1;rounded=0;" parent="oZp67QmK9EEdHLJoPUvL-19" vertex="1">
          <mxGeometry x="186" y="33" width="100" height="57" as="geometry" />
        </mxCell>
        <mxCell id="oZp67QmK9EEdHLJoPUvL-25" value="" style="endArrow=classic;html=1;rounded=0;exitX=1;exitY=0.5;exitDx=0;exitDy=0;fillColor=#647687;strokeColor=#314354;strokeWidth=2;" parent="1" source="oZp67QmK9EEdHLJoPUvL-37" target="oZp67QmK9EEdHLJoPUvL-27" edge="1">
          <mxGeometry width="50" height="50" relative="1" as="geometry">
            <mxPoint x="888" y="430" as="sourcePoint" />
            <mxPoint x="1088" y="480" as="targetPoint" />
          </mxGeometry>
        </mxCell>
        <mxCell id="oZp67QmK9EEdHLJoPUvL-82" style="edgeStyle=orthogonalEdgeStyle;rounded=0;orthogonalLoop=1;jettySize=auto;html=1;fillColor=#647687;strokeColor=#314354;strokeWidth=2;" parent="1" source="oZp67QmK9EEdHLJoPUvL-27" edge="1">
          <mxGeometry relative="1" as="geometry">
            <mxPoint x="1277" y="399" as="targetPoint" />
          </mxGeometry>
        </mxCell>
        <mxCell id="oZp67QmK9EEdHLJoPUvL-27" value="" style="image;sketch=0;aspect=fixed;html=1;points=[];align=center;fontSize=12;image=img/lib/mscae/SQL_DataWarehouse.svg;direction=east;rounded=0;" parent="1" vertex="1">
          <mxGeometry x="1193" y="133" width="168.75" height="162" as="geometry" />
        </mxCell>
        <mxCell id="oZp67QmK9EEdHLJoPUvL-28" value="" style="image;sketch=0;aspect=fixed;html=1;points=[];align=center;fontSize=12;image=img/lib/mscae/Azure_Database_for_PostgreSQL_servers.svg;rounded=0;" parent="1" vertex="1">
          <mxGeometry x="1289.33" y="197.8" width="73.87" height="97.2" as="geometry" />
        </mxCell>
        <mxCell id="oZp67QmK9EEdHLJoPUvL-29" value="" style="sketch=0;points=[[0.015,0.015,0],[0.985,0.015,0],[0.985,0.985,0],[0.015,0.985,0],[0.25,0,0],[0.5,0,0],[0.75,0,0],[1,0.25,0],[1,0.5,0],[1,0.75,0],[0.75,1,0],[0.5,1,0],[0.25,1,0],[0,0.75,0],[0,0.5,0],[0,0.25,0]];verticalLabelPosition=bottom;html=1;verticalAlign=top;aspect=fixed;align=center;pointerEvents=1;shape=mxgraph.cisco19.rect;prIcon=database_relational;fillColor=#FAFAFA;strokeColor=#005073;rounded=0;" parent="1" vertex="1">
          <mxGeometry x="1262" y="175" width="50" height="50" as="geometry" />
        </mxCell>
        <mxCell id="oZp67QmK9EEdHLJoPUvL-32" value="" style="points=[[0.25,0,0],[0.5,0,0],[0.75,0,0],[1,0.25,0],[1,0.5,0],[1,0.75,0],[0.75,1,0],[0.5,1,0],[0.25,1,0],[0,0.75,0],[0,0.5,0],[0,0.25,0]];shape=mxgraph.bpmn.task;whiteSpace=wrap;rectStyle=rounded;size=10;html=1;container=1;expand=0;collapsible=0;taskMarker=abstract;isLoopSub=1;rounded=0;" parent="1" vertex="1">
          <mxGeometry x="775" y="318" width="220" height="80" as="geometry" />
        </mxCell>
        <mxCell id="oZp67QmK9EEdHLJoPUvL-33" value="Transform based on the Dimensional Model" style="text;strokeColor=none;align=center;fillColor=none;html=1;verticalAlign=middle;whiteSpace=wrap;rounded=0;" parent="oZp67QmK9EEdHLJoPUvL-32" vertex="1">
          <mxGeometry x="9.166666666666666" y="7.272727272727273" width="201.66666666666666" height="65.45454545454545" as="geometry" />
        </mxCell>
        <mxCell id="oZp67QmK9EEdHLJoPUvL-34" value="" style="endArrow=none;html=1;rounded=0;entryX=0.5;entryY=0;entryDx=0;entryDy=0;entryPerimeter=0;exitX=0.472;exitY=0.985;exitDx=0;exitDy=0;exitPerimeter=0;edgeStyle=orthogonalEdgeStyle;" parent="1" source="oZp67QmK9EEdHLJoPUvL-21" target="oZp67QmK9EEdHLJoPUvL-32" edge="1">
          <mxGeometry width="50" height="50" relative="1" as="geometry">
            <mxPoint x="902.4100000000001" y="291" as="sourcePoint" />
            <mxPoint x="901.4100000000001" y="378" as="targetPoint" />
          </mxGeometry>
        </mxCell>
        <mxCell id="oZp67QmK9EEdHLJoPUvL-36" value="Python + SQL" style="text;strokeColor=none;align=center;fillColor=none;html=1;verticalAlign=middle;whiteSpace=wrap;rounded=0;" parent="1" vertex="1">
          <mxGeometry x="222" y="304" width="280" height="30" as="geometry" />
        </mxCell>
        <mxCell id="oZp67QmK9EEdHLJoPUvL-38" value="Python + SQL" style="text;strokeColor=none;align=center;fillColor=none;html=1;verticalAlign=middle;whiteSpace=wrap;rounded=0;" parent="1" vertex="1">
          <mxGeometry x="742" y="132" width="280" height="30" as="geometry" />
        </mxCell>
        <mxCell id="oZp67QmK9EEdHLJoPUvL-40" value="" style="sketch=0;outlineConnect=0;fontColor=#ffffff;fillColor=#008a00;strokeColor=#005700;dashed=0;verticalLabelPosition=bottom;verticalAlign=top;align=center;html=1;fontSize=12;fontStyle=0;aspect=fixed;pointerEvents=1;shape=mxgraph.aws4.sagemaker_notebook;rounded=0;" parent="1" vertex="1">
          <mxGeometry x="211" y="314" width="22.69" height="27" as="geometry" />
        </mxCell>
        <mxCell id="oZp67QmK9EEdHLJoPUvL-41" value="" style="sketch=0;outlineConnect=0;fontColor=#ffffff;fillColor=#008a00;strokeColor=#005700;dashed=0;verticalLabelPosition=bottom;verticalAlign=top;align=center;html=1;fontSize=12;fontStyle=0;aspect=fixed;pointerEvents=1;shape=mxgraph.aws4.sagemaker_notebook;rounded=0;" parent="1" vertex="1">
          <mxGeometry x="731" y="142" width="22.69" height="27" as="geometry" />
        </mxCell>
        <mxCell id="oZp67QmK9EEdHLJoPUvL-44" value="" style="shadow=0;dashed=0;html=1;strokeColor=none;fillColor=#4495D1;labelPosition=center;verticalLabelPosition=bottom;verticalAlign=top;align=center;outlineConnect=0;shape=mxgraph.veeam.library;rounded=0;" parent="1" vertex="1">
          <mxGeometry x="480" y="311" width="30.19" height="30" as="geometry" />
        </mxCell>
        <mxCell id="oZp67QmK9EEdHLJoPUvL-46" value="" style="sketch=0;outlineConnect=0;fontColor=#ffffff;fillColor=#60a917;strokeColor=#2D7600;dashed=0;verticalLabelPosition=bottom;verticalAlign=top;align=center;html=1;fontSize=12;fontStyle=0;aspect=fixed;pointerEvents=1;shape=mxgraph.aws4.sagemaker_notebook;rounded=0;" parent="1" vertex="1">
          <mxGeometry x="1212.4" y="676" width="25.21" height="30" as="geometry" />
        </mxCell>
        <mxCell id="oZp67QmK9EEdHLJoPUvL-72" value="" style="shadow=0;dashed=0;html=1;strokeColor=none;fillColor=#4495D1;labelPosition=center;verticalLabelPosition=bottom;verticalAlign=top;align=center;outlineConnect=0;shape=mxgraph.veeam.library;rounded=0;" parent="1" vertex="1">
          <mxGeometry x="1212.0000000000002" y="758.6" width="28" height="22.8" as="geometry" />
        </mxCell>
        <mxCell id="oZp67QmK9EEdHLJoPUvL-73" value="" style="endArrow=none;dashed=1;html=1;rounded=0;edgeStyle=orthogonalEdgeStyle;curved=1;" parent="1" source="oZp67QmK9EEdHLJoPUvL-75" target="oZp67QmK9EEdHLJoPUvL-27" edge="1">
          <mxGeometry width="50" height="50" relative="1" as="geometry">
            <mxPoint x="1172.0100000000002" y="97.78721340998823" as="sourcePoint" />
            <mxPoint x="1195.4228571428573" y="123" as="targetPoint" />
          </mxGeometry>
        </mxCell>
        <mxCell id="oZp67QmK9EEdHLJoPUvL-74" value="Connect" style="edgeLabel;html=1;align=center;verticalAlign=middle;resizable=0;points=[];rounded=0;" parent="oZp67QmK9EEdHLJoPUvL-73" vertex="1" connectable="0">
          <mxGeometry x="-0.2084" relative="1" as="geometry">
            <mxPoint x="7" as="offset" />
          </mxGeometry>
        </mxCell>
        <mxCell id="oZp67QmK9EEdHLJoPUvL-75" value="" style="shadow=0;dashed=0;html=1;strokeColor=none;fillColor=#4495D1;labelPosition=center;verticalLabelPosition=bottom;verticalAlign=top;align=center;outlineConnect=0;shape=mxgraph.veeam.library;rounded=0;" parent="1" vertex="1">
          <mxGeometry x="1001" y="137" width="34" height="35.5" as="geometry" />
        </mxCell>
        <mxCell id="oZp67QmK9EEdHLJoPUvL-79" value="" style="sketch=0;points=[[0.015,0.015,0],[0.985,0.015,0],[0.985,0.985,0],[0.015,0.985,0],[0.25,0,0],[0.5,0,0],[0.75,0,0],[1,0.25,0],[1,0.5,0],[1,0.75,0],[0.75,1,0],[0.5,1,0],[0.25,1,0],[0,0.75,0],[0,0.5,0],[0,0.25,0]];verticalLabelPosition=bottom;html=1;verticalAlign=top;aspect=fixed;align=center;pointerEvents=1;shape=mxgraph.cisco19.rect;prIcon=database_relational;fillColor=#FAFAFA;strokeColor=#005073;rounded=0;" parent="1" vertex="1">
          <mxGeometry x="1212" y="796" width="28.61" height="28.61" as="geometry" />
        </mxCell>
        <mxCell id="oZp67QmK9EEdHLJoPUvL-80" value="" style="shape=image;html=1;verticalAlign=top;verticalLabelPosition=bottom;labelBackgroundColor=#ffffff;imageAspect=0;aspect=fixed;image=https://cdn3.iconfinder.com/data/icons/fintech-icon/128/11_Data_Visualization-128.png;rounded=0;" parent="1" vertex="1">
          <mxGeometry x="1219" y="383" width="114" height="114" as="geometry" />
        </mxCell>
        <mxCell id="oZp67QmK9EEdHLJoPUvL-81" value="" style="verticalLabelPosition=bottom;sketch=0;aspect=fixed;html=1;verticalAlign=top;strokeColor=none;align=center;outlineConnect=0;shape=mxgraph.citrix.reporting;rounded=0;" parent="1" vertex="1">
          <mxGeometry x="1214" y="427" width="50" height="56.1" as="geometry" />
        </mxCell>
        <mxCell id="oZp67QmK9EEdHLJoPUvL-83" value="&lt;font style=&quot;font-size: 14px;&quot; face=&quot;Helvetica&quot;&gt;Source&amp;nbsp;&lt;/font&gt;" style="text;strokeColor=none;align=center;fillColor=none;html=1;verticalAlign=middle;whiteSpace=wrap;rounded=0;fontSize=20;fontFamily=Architects Daughter;" parent="1" vertex="1">
          <mxGeometry x="39.370000000000005" y="118" width="60" height="30" as="geometry" />
        </mxCell>
        <mxCell id="oZp67QmK9EEdHLJoPUvL-86" value="" style="endArrow=none;dashed=1;html=1;rounded=0;exitX=1.067;exitY=0.344;exitDx=0;exitDy=0;exitPerimeter=0;edgeStyle=orthogonalEdgeStyle;curved=1;" parent="1" source="oZp67QmK9EEdHLJoPUvL-44" target="oZp67QmK9EEdHLJoPUvL-7" edge="1">
          <mxGeometry width="50" height="50" relative="1" as="geometry">
            <mxPoint x="490" y="303" as="sourcePoint" />
            <mxPoint x="491" y="212" as="targetPoint" />
          </mxGeometry>
        </mxCell>
        <mxCell id="oZp67QmK9EEdHLJoPUvL-87" value="Connect" style="edgeLabel;html=1;align=center;verticalAlign=middle;resizable=0;points=[];rounded=0;" parent="oZp67QmK9EEdHLJoPUvL-86" vertex="1" connectable="0">
          <mxGeometry x="-0.2084" relative="1" as="geometry">
            <mxPoint x="7" as="offset" />
          </mxGeometry>
        </mxCell>
        <mxCell id="oZp67QmK9EEdHLJoPUvL-89" value="" style="image;aspect=fixed;html=1;points=[];align=center;fontSize=12;image=img/lib/azure2/other/Dashboard_Hub.svg;rounded=1;sketch=1;hachureGap=4;jiggle=2;curveFitting=1;fontFamily=Architects Daughter;fontSource=https%3A%2F%2Ffonts.googleapis.com%2Fcss%3Ffamily%3DArchitects%2BDaughter;" parent="1" vertex="1">
          <mxGeometry x="1306.33" y="438.04" width="58.92" height="45.06" as="geometry" />
        </mxCell>
        <mxCell id="oZp67QmK9EEdHLJoPUvL-90" value="&lt;font face=&quot;Helvetica&quot;&gt;&lt;span style=&quot;font-size: 14px;&quot;&gt;Dashboard&lt;br&gt;&lt;/span&gt;&lt;/font&gt;" style="text;strokeColor=none;align=center;fillColor=none;html=1;verticalAlign=middle;whiteSpace=wrap;rounded=0;fontSize=20;fontFamily=Architects Daughter;" parent="1" vertex="1">
          <mxGeometry x="1258" y="489" width="60" height="30" as="geometry" />
        </mxCell>
        <mxCell id="oZp67QmK9EEdHLJoPUvL-92" value="" style="edgeStyle=orthogonalEdgeStyle;rounded=0;orthogonalLoop=1;jettySize=auto;html=1;fillColor=#647687;strokeColor=#314354;strokeWidth=2;" parent="1" source="oZp67QmK9EEdHLJoPUvL-1" target="oZp67QmK9EEdHLJoPUvL-5" edge="1">
          <mxGeometry relative="1" as="geometry">
            <mxPoint x="63.31578947368416" y="306" as="targetPoint" />
            <mxPoint x="85" y="140" as="sourcePoint" />
          </mxGeometry>
        </mxCell>
        <mxCell id="oZp67QmK9EEdHLJoPUvL-93" value="" style="sketch=0;outlineConnect=0;fontColor=#232F3E;gradientColor=none;fillColor=#7AA116;strokeColor=none;dashed=0;verticalLabelPosition=bottom;verticalAlign=top;align=center;html=1;fontSize=12;fontStyle=0;aspect=fixed;pointerEvents=1;shape=mxgraph.aws4.http_protocol;rounded=1;hachureGap=4;jiggle=2;curveFitting=1;fontFamily=Architects Daughter;fontSource=https%3A%2F%2Ffonts.googleapis.com%2Fcss%3Ffamily%3DArchitects%2BDaughter;" parent="1" vertex="1">
          <mxGeometry x="81.02" y="396" width="47" height="47" as="geometry" />
        </mxCell>
        <mxCell id="oZp67QmK9EEdHLJoPUvL-95" value="" style="sketch=0;outlineConnect=0;fontColor=#232F3E;gradientColor=none;fillColor=#7AA116;strokeColor=none;dashed=0;verticalLabelPosition=bottom;verticalAlign=top;align=center;html=1;fontSize=12;fontStyle=0;aspect=fixed;pointerEvents=1;shape=mxgraph.aws4.http_protocol;rounded=1;hachureGap=4;jiggle=2;curveFitting=1;fontFamily=Architects Daughter;fontSource=https%3A%2F%2Ffonts.googleapis.com%2Fcss%3Ffamily%3DArchitects%2BDaughter;" parent="1" vertex="1">
          <mxGeometry x="1214.45" y="720" width="21.11" height="21.11" as="geometry" />
        </mxCell>
        <mxCell id="oZp67QmK9EEdHLJoPUvL-99" value="&lt;font style=&quot;font-size: 14px;&quot; face=&quot;Helvetica&quot;&gt;Database&lt;/font&gt;" style="text;strokeColor=none;align=center;fillColor=none;html=1;verticalAlign=middle;whiteSpace=wrap;rounded=0;fontSize=20;fontFamily=Architects Daughter;" parent="1" vertex="1">
          <mxGeometry x="586" y="106" width="60" height="30" as="geometry" />
        </mxCell>
        <mxCell id="oZp67QmK9EEdHLJoPUvL-100" value="&lt;font style=&quot;font-size: 14px;&quot; face=&quot;Helvetica&quot;&gt;Data Warehouse&lt;/font&gt;" style="text;strokeColor=none;align=center;fillColor=none;html=1;verticalAlign=middle;whiteSpace=wrap;rounded=0;fontSize=20;fontFamily=Architects Daughter;" parent="1" vertex="1">
          <mxGeometry x="1225.56" y="90" width="64.44" height="30" as="geometry" />
        </mxCell>
      </root>
    </mxGraphModel>
  </diagram>
  <diagram id="BQQpvgiXreFLzf3pVBU5" name="ERD">
    <mxGraphModel dx="1173" dy="1305" grid="1" gridSize="10" guides="1" tooltips="1" connect="1" arrows="1" fold="1" page="1" pageScale="1" pageWidth="1400" pageHeight="850" math="0" shadow="0">
      <root>
        <mxCell id="0" />
        <mxCell id="1" parent="0" />
        <mxCell id="hzcTF9_PanDwGjhAesQ--1" value="POVERTY" style="whiteSpace=wrap;html=1;align=center;" vertex="1" parent="1">
          <mxGeometry x="290" y="305" width="100" height="40" as="geometry" />
        </mxCell>
        <mxCell id="OkkWYfvUJ_7oVDpKxBSs-3" style="rounded=0;orthogonalLoop=1;jettySize=auto;html=1;entryX=0.5;entryY=0;entryDx=0;entryDy=0;" edge="1" parent="1" source="hzcTF9_PanDwGjhAesQ--2" target="hzcTF9_PanDwGjhAesQ--1">
          <mxGeometry relative="1" as="geometry" />
        </mxCell>
        <mxCell id="hzcTF9_PanDwGjhAesQ--2" value="Annual Per Capita Food Threshold&amp;nbsp; (in PhP)" style="ellipse;whiteSpace=wrap;html=1;align=center;" vertex="1" parent="1">
          <mxGeometry x="310" y="130" width="120" height="60" as="geometry" />
        </mxCell>
        <mxCell id="OkkWYfvUJ_7oVDpKxBSs-2" style="rounded=0;orthogonalLoop=1;jettySize=auto;html=1;entryX=0.75;entryY=0;entryDx=0;entryDy=0;" edge="1" parent="1" source="gxUUSBvXjTngfXurYSsp-1" target="hzcTF9_PanDwGjhAesQ--1">
          <mxGeometry relative="1" as="geometry" />
        </mxCell>
        <mxCell id="gxUUSBvXjTngfXurYSsp-1" value="Poverty Gap (%)" style="ellipse;whiteSpace=wrap;html=1;align=center;" vertex="1" parent="1">
          <mxGeometry x="400" y="177.5" width="120" height="60" as="geometry" />
        </mxCell>
        <mxCell id="OkkWYfvUJ_7oVDpKxBSs-1" style="rounded=0;orthogonalLoop=1;jettySize=auto;html=1;entryX=1;entryY=0;entryDx=0;entryDy=0;" edge="1" parent="1" source="rJK9L7ujIcYG_bQKj177-1" target="hzcTF9_PanDwGjhAesQ--1">
          <mxGeometry relative="1" as="geometry" />
        </mxCell>
        <mxCell id="rJK9L7ujIcYG_bQKj177-1" value="Severity of Poverty (%)" style="ellipse;whiteSpace=wrap;html=1;align=center;" vertex="1" parent="1">
          <mxGeometry x="410" y="247.5" width="130" height="70" as="geometry" />
        </mxCell>
        <mxCell id="OkkWYfvUJ_7oVDpKxBSs-5" value="REGION" style="whiteSpace=wrap;html=1;align=center;" vertex="1" parent="1">
          <mxGeometry x="670" y="305" width="100" height="40" as="geometry" />
        </mxCell>
        <mxCell id="OkkWYfvUJ_7oVDpKxBSs-11" style="rounded=0;orthogonalLoop=1;jettySize=auto;html=1;entryX=0.75;entryY=0;entryDx=0;entryDy=0;" edge="1" parent="1" source="OkkWYfvUJ_7oVDpKxBSs-6" target="OkkWYfvUJ_7oVDpKxBSs-5">
          <mxGeometry relative="1" as="geometry" />
        </mxCell>
        <mxCell id="OkkWYfvUJ_7oVDpKxBSs-6" value="Region" style="ellipse;whiteSpace=wrap;html=1;align=center;" vertex="1" parent="1">
          <mxGeometry x="740" y="202.5" width="100" height="52.5" as="geometry" />
        </mxCell>
        <mxCell id="OkkWYfvUJ_7oVDpKxBSs-8" style="rounded=0;orthogonalLoop=1;jettySize=auto;html=1;entryX=0.25;entryY=0;entryDx=0;entryDy=0;" edge="1" parent="1" source="OkkWYfvUJ_7oVDpKxBSs-7" target="hzcTF9_PanDwGjhAesQ--1">
          <mxGeometry relative="1" as="geometry" />
        </mxCell>
        <mxCell id="OkkWYfvUJ_7oVDpKxBSs-7" value="ProvID" style="ellipse;whiteSpace=wrap;html=1;align=center;fontStyle=4;" vertex="1" parent="1">
          <mxGeometry x="230" y="176.25" width="100" height="55" as="geometry" />
        </mxCell>
        <mxCell id="OkkWYfvUJ_7oVDpKxBSs-10" style="rounded=0;orthogonalLoop=1;jettySize=auto;html=1;entryX=0.25;entryY=0;entryDx=0;entryDy=0;" edge="1" parent="1" source="OkkWYfvUJ_7oVDpKxBSs-9" target="OkkWYfvUJ_7oVDpKxBSs-5">
          <mxGeometry relative="1" as="geometry" />
        </mxCell>
        <mxCell id="OkkWYfvUJ_7oVDpKxBSs-9" value="RegID" style="ellipse;whiteSpace=wrap;html=1;align=center;fontStyle=4;" vertex="1" parent="1">
          <mxGeometry x="610" y="205" width="100" height="55" as="geometry" />
        </mxCell>
        <mxCell id="OkkWYfvUJ_7oVDpKxBSs-12" value="" style="edgeStyle=orthogonalEdgeStyle;fontSize=12;html=1;endArrow=ERmandOne;startArrow=ERmandOne;rounded=0;exitX=1;exitY=0.5;exitDx=0;exitDy=0;entryX=0;entryY=0.5;entryDx=0;entryDy=0;" edge="1" parent="1" source="hzcTF9_PanDwGjhAesQ--1" target="OkkWYfvUJ_7oVDpKxBSs-5">
          <mxGeometry width="100" height="100" relative="1" as="geometry">
            <mxPoint x="780" y="390" as="sourcePoint" />
            <mxPoint x="880" y="290" as="targetPoint" />
          </mxGeometry>
        </mxCell>
        <mxCell id="OkkWYfvUJ_7oVDpKxBSs-19" value="1" style="edgeLabel;html=1;align=center;verticalAlign=middle;resizable=0;points=[];" vertex="1" connectable="0" parent="OkkWYfvUJ_7oVDpKxBSs-12">
          <mxGeometry x="-0.8318" y="-2" relative="1" as="geometry">
            <mxPoint as="offset" />
          </mxGeometry>
        </mxCell>
        <mxCell id="OkkWYfvUJ_7oVDpKxBSs-20" value="1" style="edgeLabel;html=1;align=center;verticalAlign=middle;resizable=0;points=[];" vertex="1" connectable="0" parent="OkkWYfvUJ_7oVDpKxBSs-12">
          <mxGeometry x="0.8563" y="-2" relative="1" as="geometry">
            <mxPoint as="offset" />
          </mxGeometry>
        </mxCell>
        <mxCell id="OkkWYfvUJ_7oVDpKxBSs-13" value="INCOME" style="whiteSpace=wrap;html=1;align=center;" vertex="1" parent="1">
          <mxGeometry x="460" y="536.5" width="100" height="40" as="geometry" />
        </mxCell>
        <mxCell id="OkkWYfvUJ_7oVDpKxBSs-14" style="rounded=0;orthogonalLoop=1;jettySize=auto;html=1;entryX=0.75;entryY=0;entryDx=0;entryDy=0;" edge="1" parent="1" source="OkkWYfvUJ_7oVDpKxBSs-15" target="OkkWYfvUJ_7oVDpKxBSs-13">
          <mxGeometry relative="1" as="geometry" />
        </mxCell>
        <mxCell id="OkkWYfvUJ_7oVDpKxBSs-15" value="Income Gap (%)" style="ellipse;whiteSpace=wrap;html=1;align=center;" vertex="1" parent="1">
          <mxGeometry x="530" y="434" width="100" height="52.5" as="geometry" />
        </mxCell>
        <mxCell id="OkkWYfvUJ_7oVDpKxBSs-16" style="rounded=0;orthogonalLoop=1;jettySize=auto;html=1;entryX=0.25;entryY=0;entryDx=0;entryDy=0;" edge="1" parent="1" source="OkkWYfvUJ_7oVDpKxBSs-17" target="OkkWYfvUJ_7oVDpKxBSs-13">
          <mxGeometry relative="1" as="geometry" />
        </mxCell>
        <mxCell id="OkkWYfvUJ_7oVDpKxBSs-17" value="IncID" style="ellipse;whiteSpace=wrap;html=1;align=center;fontStyle=4;" vertex="1" parent="1">
          <mxGeometry x="400" y="436.5" width="100" height="55" as="geometry" />
        </mxCell>
        <mxCell id="OkkWYfvUJ_7oVDpKxBSs-18" value="" style="edgeStyle=orthogonalEdgeStyle;fontSize=12;html=1;endArrow=ERmandOne;startArrow=ERmandOne;rounded=0;exitX=0.5;exitY=1;exitDx=0;exitDy=0;entryX=0;entryY=0.5;entryDx=0;entryDy=0;" edge="1" parent="1" source="hzcTF9_PanDwGjhAesQ--1" target="OkkWYfvUJ_7oVDpKxBSs-13">
          <mxGeometry width="100" height="100" relative="1" as="geometry">
            <mxPoint x="410" y="412" as="sourcePoint" />
            <mxPoint x="750" y="330" as="targetPoint" />
          </mxGeometry>
        </mxCell>
        <mxCell id="OkkWYfvUJ_7oVDpKxBSs-21" value="1" style="edgeLabel;html=1;align=center;verticalAlign=middle;resizable=0;points=[];" vertex="1" connectable="0" parent="OkkWYfvUJ_7oVDpKxBSs-18">
          <mxGeometry x="-0.851" y="2" relative="1" as="geometry">
            <mxPoint as="offset" />
          </mxGeometry>
        </mxCell>
        <mxCell id="OkkWYfvUJ_7oVDpKxBSs-22" value="1" style="edgeLabel;html=1;align=center;verticalAlign=middle;resizable=0;points=[];" vertex="1" connectable="0" parent="OkkWYfvUJ_7oVDpKxBSs-18">
          <mxGeometry x="0.8693" relative="1" as="geometry">
            <mxPoint as="offset" />
          </mxGeometry>
        </mxCell>
        <mxCell id="OkkWYfvUJ_7oVDpKxBSs-23" value="POPULATION" style="whiteSpace=wrap;html=1;align=center;" vertex="1" parent="1">
          <mxGeometry x="998.12" y="406.25" width="100" height="40" as="geometry" />
        </mxCell>
        <mxCell id="OkkWYfvUJ_7oVDpKxBSs-24" style="rounded=0;orthogonalLoop=1;jettySize=auto;html=1;entryX=0.5;entryY=0;entryDx=0;entryDy=0;" edge="1" parent="1" source="OkkWYfvUJ_7oVDpKxBSs-25" target="OkkWYfvUJ_7oVDpKxBSs-23">
          <mxGeometry relative="1" as="geometry" />
        </mxCell>
        <mxCell id="OkkWYfvUJ_7oVDpKxBSs-25" value="Population Number" style="ellipse;whiteSpace=wrap;html=1;align=center;" vertex="1" parent="1">
          <mxGeometry x="1040" y="320" width="100" height="52.5" as="geometry" />
        </mxCell>
        <mxCell id="OkkWYfvUJ_7oVDpKxBSs-26" style="rounded=0;orthogonalLoop=1;jettySize=auto;html=1;entryX=0.25;entryY=0;entryDx=0;entryDy=0;" edge="1" parent="1" source="OkkWYfvUJ_7oVDpKxBSs-27" target="OkkWYfvUJ_7oVDpKxBSs-23">
          <mxGeometry relative="1" as="geometry" />
        </mxCell>
        <mxCell id="OkkWYfvUJ_7oVDpKxBSs-27" value="PopID" style="ellipse;whiteSpace=wrap;html=1;align=center;fontStyle=4;" vertex="1" parent="1">
          <mxGeometry x="920" y="328.75" width="100" height="55" as="geometry" />
        </mxCell>
        <mxCell id="OkkWYfvUJ_7oVDpKxBSs-29" value="" style="edgeStyle=orthogonalEdgeStyle;fontSize=12;html=1;endArrow=ERmandOne;startArrow=ERmandOne;rounded=0;exitX=1;exitY=0.5;exitDx=0;exitDy=0;entryX=0;entryY=0.5;entryDx=0;entryDy=0;" edge="1" parent="1" source="OkkWYfvUJ_7oVDpKxBSs-5" target="OkkWYfvUJ_7oVDpKxBSs-23">
          <mxGeometry width="100" height="100" relative="1" as="geometry">
            <mxPoint x="509.76" y="407" as="sourcePoint" />
            <mxPoint x="849.76" y="325" as="targetPoint" />
          </mxGeometry>
        </mxCell>
        <mxCell id="OkkWYfvUJ_7oVDpKxBSs-30" value="1" style="edgeLabel;html=1;align=center;verticalAlign=middle;resizable=0;points=[];" vertex="1" connectable="0" parent="OkkWYfvUJ_7oVDpKxBSs-29">
          <mxGeometry x="-0.8318" y="-2" relative="1" as="geometry">
            <mxPoint as="offset" />
          </mxGeometry>
        </mxCell>
        <mxCell id="OkkWYfvUJ_7oVDpKxBSs-31" value="1" style="edgeLabel;html=1;align=center;verticalAlign=middle;resizable=0;points=[];" vertex="1" connectable="0" parent="OkkWYfvUJ_7oVDpKxBSs-29">
          <mxGeometry x="0.8563" y="-2" relative="1" as="geometry">
            <mxPoint as="offset" />
          </mxGeometry>
        </mxCell>
        <mxCell id="w_eA7MR1ThYJiVHAwSKS-2" style="rounded=0;orthogonalLoop=1;jettySize=auto;html=1;entryX=0.75;entryY=0;entryDx=0;entryDy=0;" edge="1" parent="1" source="w_eA7MR1ThYJiVHAwSKS-1" target="OkkWYfvUJ_7oVDpKxBSs-23">
          <mxGeometry relative="1" as="geometry" />
        </mxCell>
        <mxCell id="w_eA7MR1ThYJiVHAwSKS-1" value="Gender" style="ellipse;whiteSpace=wrap;html=1;align=center;" vertex="1" parent="1">
          <mxGeometry x="1140" y="345" width="90" height="52.5" as="geometry" />
        </mxCell>
        <mxCell id="eizdyry3xsJaZ6XRWs63-3" style="rounded=0;orthogonalLoop=1;jettySize=auto;html=1;entryX=0;entryY=0;entryDx=0;entryDy=0;" edge="1" parent="1" source="eizdyry3xsJaZ6XRWs63-1" target="hzcTF9_PanDwGjhAesQ--1">
          <mxGeometry relative="1" as="geometry" />
        </mxCell>
        <mxCell id="eizdyry3xsJaZ6XRWs63-1" value="Annual Per Capita Poverty Threshold (in PhP)" style="ellipse;whiteSpace=wrap;html=1;align=center;" vertex="1" parent="1">
          <mxGeometry x="140" y="218.75" width="120" height="60" as="geometry" />
        </mxCell>
        <mxCell id="eizdyry3xsJaZ6XRWs63-4" style="rounded=0;orthogonalLoop=1;jettySize=auto;html=1;entryX=0;entryY=0.5;entryDx=0;entryDy=0;" edge="1" parent="1" source="eizdyry3xsJaZ6XRWs63-2" target="hzcTF9_PanDwGjhAesQ--1">
          <mxGeometry relative="1" as="geometry" />
        </mxCell>
        <mxCell id="eizdyry3xsJaZ6XRWs63-2" value="Poverty Incidence among Population (%)" style="ellipse;whiteSpace=wrap;html=1;align=center;" vertex="1" parent="1">
          <mxGeometry x="130" y="285" width="120" height="60" as="geometry" />
        </mxCell>
      </root>
    </mxGraphModel>
  </diagram>
  <diagram id="o2Kecw3Kfn7ZQJIp6pNg" name="NRM">
    <mxGraphModel dx="587" dy="653" grid="1" gridSize="10" guides="1" tooltips="1" connect="1" arrows="1" fold="1" page="1" pageScale="1" pageWidth="1400" pageHeight="850" math="0" shadow="0">
      <root>
        <mxCell id="0" />
        <mxCell id="1" parent="0" />
        <mxCell id="J8t7XFKCZNfc7hIhXayX-1" value="POVERTY" style="shape=table;startSize=30;container=1;collapsible=1;childLayout=tableLayout;fixedRows=1;rowLines=0;fontStyle=1;align=center;resizeLast=1;html=1;" parent="1" vertex="1">
          <mxGeometry x="190" y="180" width="180" height="240.0000000000001" as="geometry" />
        </mxCell>
        <mxCell id="J8t7XFKCZNfc7hIhXayX-2" value="" style="shape=tableRow;horizontal=0;startSize=0;swimlaneHead=0;swimlaneBody=0;fillColor=none;collapsible=0;dropTarget=0;points=[[0,0.5],[1,0.5]];portConstraint=eastwest;top=0;left=0;right=0;bottom=1;" parent="J8t7XFKCZNfc7hIhXayX-1" vertex="1">
          <mxGeometry y="30" width="180" height="30" as="geometry" />
        </mxCell>
        <mxCell id="J8t7XFKCZNfc7hIhXayX-3" value="PK" style="shape=partialRectangle;connectable=0;fillColor=none;top=0;left=0;bottom=0;right=0;fontStyle=1;overflow=hidden;whiteSpace=wrap;html=1;" parent="J8t7XFKCZNfc7hIhXayX-2" vertex="1">
          <mxGeometry width="30" height="30" as="geometry">
            <mxRectangle width="30" height="30" as="alternateBounds" />
          </mxGeometry>
        </mxCell>
        <mxCell id="J8t7XFKCZNfc7hIhXayX-4" value="PovID" style="shape=partialRectangle;connectable=0;fillColor=none;top=0;left=0;bottom=0;right=0;align=left;spacingLeft=6;fontStyle=5;overflow=hidden;whiteSpace=wrap;html=1;" parent="J8t7XFKCZNfc7hIhXayX-2" vertex="1">
          <mxGeometry x="30" width="150" height="30" as="geometry">
            <mxRectangle width="150" height="30" as="alternateBounds" />
          </mxGeometry>
        </mxCell>
        <mxCell id="J8t7XFKCZNfc7hIhXayX-8" value="" style="shape=tableRow;horizontal=0;startSize=0;swimlaneHead=0;swimlaneBody=0;fillColor=none;collapsible=0;dropTarget=0;points=[[0,0.5],[1,0.5]];portConstraint=eastwest;top=0;left=0;right=0;bottom=0;" parent="J8t7XFKCZNfc7hIhXayX-1" vertex="1">
          <mxGeometry y="60" width="180" height="40" as="geometry" />
        </mxCell>
        <mxCell id="J8t7XFKCZNfc7hIhXayX-9" value="" style="shape=partialRectangle;connectable=0;fillColor=none;top=0;left=0;bottom=0;right=0;editable=1;overflow=hidden;whiteSpace=wrap;html=1;" parent="J8t7XFKCZNfc7hIhXayX-8" vertex="1">
          <mxGeometry width="30" height="40" as="geometry">
            <mxRectangle width="30" height="40" as="alternateBounds" />
          </mxGeometry>
        </mxCell>
        <mxCell id="J8t7XFKCZNfc7hIhXayX-10" value="Annual Per Capita Food Threshold&amp;nbsp; (in PhP)" style="shape=partialRectangle;connectable=0;fillColor=none;top=0;left=0;bottom=0;right=0;align=left;spacingLeft=6;overflow=hidden;whiteSpace=wrap;html=1;" parent="J8t7XFKCZNfc7hIhXayX-8" vertex="1">
          <mxGeometry x="30" width="150" height="40" as="geometry">
            <mxRectangle width="150" height="40" as="alternateBounds" />
          </mxGeometry>
        </mxCell>
        <mxCell id="J8t7XFKCZNfc7hIhXayX-11" value="" style="shape=tableRow;horizontal=0;startSize=0;swimlaneHead=0;swimlaneBody=0;fillColor=none;collapsible=0;dropTarget=0;points=[[0,0.5],[1,0.5]];portConstraint=eastwest;top=0;left=0;right=0;bottom=0;" parent="J8t7XFKCZNfc7hIhXayX-1" vertex="1">
          <mxGeometry y="100" width="180" height="40" as="geometry" />
        </mxCell>
        <mxCell id="J8t7XFKCZNfc7hIhXayX-12" value="" style="shape=partialRectangle;connectable=0;fillColor=none;top=0;left=0;bottom=0;right=0;editable=1;overflow=hidden;whiteSpace=wrap;html=1;" parent="J8t7XFKCZNfc7hIhXayX-11" vertex="1">
          <mxGeometry width="30" height="40" as="geometry">
            <mxRectangle width="30" height="40" as="alternateBounds" />
          </mxGeometry>
        </mxCell>
        <mxCell id="J8t7XFKCZNfc7hIhXayX-13" value="Annual Per Capita Poverty Threshold (in PhP)" style="shape=partialRectangle;connectable=0;fillColor=none;top=0;left=0;bottom=0;right=0;align=left;spacingLeft=6;overflow=hidden;whiteSpace=wrap;html=1;" parent="J8t7XFKCZNfc7hIhXayX-11" vertex="1">
          <mxGeometry x="30" width="150" height="40" as="geometry">
            <mxRectangle width="150" height="40" as="alternateBounds" />
          </mxGeometry>
        </mxCell>
        <mxCell id="J8t7XFKCZNfc7hIhXayX-14" value="" style="shape=tableRow;horizontal=0;startSize=0;swimlaneHead=0;swimlaneBody=0;fillColor=none;collapsible=0;dropTarget=0;points=[[0,0.5],[1,0.5]];portConstraint=eastwest;top=0;left=0;right=0;bottom=0;" parent="J8t7XFKCZNfc7hIhXayX-1" vertex="1">
          <mxGeometry y="140" width="180" height="40" as="geometry" />
        </mxCell>
        <mxCell id="J8t7XFKCZNfc7hIhXayX-15" value="" style="shape=partialRectangle;connectable=0;fillColor=none;top=0;left=0;bottom=0;right=0;editable=1;overflow=hidden;whiteSpace=wrap;html=1;" parent="J8t7XFKCZNfc7hIhXayX-14" vertex="1">
          <mxGeometry width="30" height="40" as="geometry">
            <mxRectangle width="30" height="40" as="alternateBounds" />
          </mxGeometry>
        </mxCell>
        <mxCell id="J8t7XFKCZNfc7hIhXayX-16" value="Poverty Incidence among Population (%)" style="shape=partialRectangle;connectable=0;fillColor=none;top=0;left=0;bottom=0;right=0;align=left;spacingLeft=6;overflow=hidden;whiteSpace=wrap;html=1;" parent="J8t7XFKCZNfc7hIhXayX-14" vertex="1">
          <mxGeometry x="30" width="150" height="40" as="geometry">
            <mxRectangle width="150" height="40" as="alternateBounds" />
          </mxGeometry>
        </mxCell>
        <mxCell id="7MKGvowiHLHhuTbwWu_D-1" value="" style="shape=tableRow;horizontal=0;startSize=0;swimlaneHead=0;swimlaneBody=0;fillColor=none;collapsible=0;dropTarget=0;points=[[0,0.5],[1,0.5]];portConstraint=eastwest;top=0;left=0;right=0;bottom=0;" vertex="1" parent="J8t7XFKCZNfc7hIhXayX-1">
          <mxGeometry y="180" width="180" height="20" as="geometry" />
        </mxCell>
        <mxCell id="7MKGvowiHLHhuTbwWu_D-2" value="" style="shape=partialRectangle;connectable=0;fillColor=none;top=0;left=0;bottom=0;right=0;editable=1;overflow=hidden;whiteSpace=wrap;html=1;" vertex="1" parent="7MKGvowiHLHhuTbwWu_D-1">
          <mxGeometry width="30" height="20" as="geometry">
            <mxRectangle width="30" height="20" as="alternateBounds" />
          </mxGeometry>
        </mxCell>
        <mxCell id="7MKGvowiHLHhuTbwWu_D-3" value="Income Gap %" style="shape=partialRectangle;connectable=0;fillColor=none;top=0;left=0;bottom=0;right=0;align=left;spacingLeft=6;overflow=hidden;whiteSpace=wrap;html=1;" vertex="1" parent="7MKGvowiHLHhuTbwWu_D-1">
          <mxGeometry x="30" width="150" height="20" as="geometry">
            <mxRectangle width="150" height="20" as="alternateBounds" />
          </mxGeometry>
        </mxCell>
        <mxCell id="7MKGvowiHLHhuTbwWu_D-4" value="" style="shape=tableRow;horizontal=0;startSize=0;swimlaneHead=0;swimlaneBody=0;fillColor=none;collapsible=0;dropTarget=0;points=[[0,0.5],[1,0.5]];portConstraint=eastwest;top=0;left=0;right=0;bottom=0;" vertex="1" parent="J8t7XFKCZNfc7hIhXayX-1">
          <mxGeometry y="200" width="180" height="20" as="geometry" />
        </mxCell>
        <mxCell id="7MKGvowiHLHhuTbwWu_D-5" value="" style="shape=partialRectangle;connectable=0;fillColor=none;top=0;left=0;bottom=0;right=0;editable=1;overflow=hidden;whiteSpace=wrap;html=1;" vertex="1" parent="7MKGvowiHLHhuTbwWu_D-4">
          <mxGeometry width="30" height="20" as="geometry">
            <mxRectangle width="30" height="20" as="alternateBounds" />
          </mxGeometry>
        </mxCell>
        <mxCell id="7MKGvowiHLHhuTbwWu_D-6" value="Poverty Gap %" style="shape=partialRectangle;connectable=0;fillColor=none;top=0;left=0;bottom=0;right=0;align=left;spacingLeft=6;overflow=hidden;whiteSpace=wrap;html=1;" vertex="1" parent="7MKGvowiHLHhuTbwWu_D-4">
          <mxGeometry x="30" width="150" height="20" as="geometry">
            <mxRectangle width="150" height="20" as="alternateBounds" />
          </mxGeometry>
        </mxCell>
        <mxCell id="7MKGvowiHLHhuTbwWu_D-26" value="" style="shape=tableRow;horizontal=0;startSize=0;swimlaneHead=0;swimlaneBody=0;fillColor=none;collapsible=0;dropTarget=0;points=[[0,0.5],[1,0.5]];portConstraint=eastwest;top=0;left=0;right=0;bottom=0;" vertex="1" parent="J8t7XFKCZNfc7hIhXayX-1">
          <mxGeometry y="220" width="180" height="20" as="geometry" />
        </mxCell>
        <mxCell id="7MKGvowiHLHhuTbwWu_D-27" value="" style="shape=partialRectangle;connectable=0;fillColor=none;top=0;left=0;bottom=0;right=0;editable=1;overflow=hidden;whiteSpace=wrap;html=1;" vertex="1" parent="7MKGvowiHLHhuTbwWu_D-26">
          <mxGeometry width="30" height="20" as="geometry">
            <mxRectangle width="30" height="20" as="alternateBounds" />
          </mxGeometry>
        </mxCell>
        <mxCell id="7MKGvowiHLHhuTbwWu_D-28" value="Severity of Poverty (%)" style="shape=partialRectangle;connectable=0;fillColor=none;top=0;left=0;bottom=0;right=0;align=left;spacingLeft=6;overflow=hidden;whiteSpace=wrap;html=1;" vertex="1" parent="7MKGvowiHLHhuTbwWu_D-26">
          <mxGeometry x="30" width="150" height="20" as="geometry">
            <mxRectangle width="150" height="20" as="alternateBounds" />
          </mxGeometry>
        </mxCell>
        <mxCell id="Khisi0PpgH30EakqjRYP-1" value="INCOME" style="shape=table;startSize=30;container=1;collapsible=1;childLayout=tableLayout;fixedRows=1;rowLines=0;fontStyle=1;align=center;resizeLast=1;html=1;" vertex="1" parent="1">
          <mxGeometry x="240" y="470" width="180" height="90" as="geometry" />
        </mxCell>
        <mxCell id="Khisi0PpgH30EakqjRYP-2" value="" style="shape=tableRow;horizontal=0;startSize=0;swimlaneHead=0;swimlaneBody=0;fillColor=none;collapsible=0;dropTarget=0;points=[[0,0.5],[1,0.5]];portConstraint=eastwest;top=0;left=0;right=0;bottom=1;" vertex="1" parent="Khisi0PpgH30EakqjRYP-1">
          <mxGeometry y="30" width="180" height="30" as="geometry" />
        </mxCell>
        <mxCell id="Khisi0PpgH30EakqjRYP-3" value="PK" style="shape=partialRectangle;connectable=0;fillColor=none;top=0;left=0;bottom=0;right=0;fontStyle=1;overflow=hidden;whiteSpace=wrap;html=1;" vertex="1" parent="Khisi0PpgH30EakqjRYP-2">
          <mxGeometry width="30" height="30" as="geometry">
            <mxRectangle width="30" height="30" as="alternateBounds" />
          </mxGeometry>
        </mxCell>
        <mxCell id="Khisi0PpgH30EakqjRYP-4" value="IncID" style="shape=partialRectangle;connectable=0;fillColor=none;top=0;left=0;bottom=0;right=0;align=left;spacingLeft=6;fontStyle=5;overflow=hidden;whiteSpace=wrap;html=1;" vertex="1" parent="Khisi0PpgH30EakqjRYP-2">
          <mxGeometry x="30" width="150" height="30" as="geometry">
            <mxRectangle width="150" height="30" as="alternateBounds" />
          </mxGeometry>
        </mxCell>
        <mxCell id="Khisi0PpgH30EakqjRYP-5" value="" style="shape=tableRow;horizontal=0;startSize=0;swimlaneHead=0;swimlaneBody=0;fillColor=none;collapsible=0;dropTarget=0;points=[[0,0.5],[1,0.5]];portConstraint=eastwest;top=0;left=0;right=0;bottom=0;" vertex="1" parent="Khisi0PpgH30EakqjRYP-1">
          <mxGeometry y="60" width="180" height="30" as="geometry" />
        </mxCell>
        <mxCell id="Khisi0PpgH30EakqjRYP-6" value="" style="shape=partialRectangle;connectable=0;fillColor=none;top=0;left=0;bottom=0;right=0;editable=1;overflow=hidden;whiteSpace=wrap;html=1;" vertex="1" parent="Khisi0PpgH30EakqjRYP-5">
          <mxGeometry width="30" height="30" as="geometry">
            <mxRectangle width="30" height="30" as="alternateBounds" />
          </mxGeometry>
        </mxCell>
        <mxCell id="Khisi0PpgH30EakqjRYP-7" value="Income Gap (%)" style="shape=partialRectangle;connectable=0;fillColor=none;top=0;left=0;bottom=0;right=0;align=left;spacingLeft=6;overflow=hidden;whiteSpace=wrap;html=1;" vertex="1" parent="Khisi0PpgH30EakqjRYP-5">
          <mxGeometry x="30" width="150" height="30" as="geometry">
            <mxRectangle width="150" height="30" as="alternateBounds" />
          </mxGeometry>
        </mxCell>
        <mxCell id="Khisi0PpgH30EakqjRYP-14" value="REGION" style="shape=table;startSize=30;container=1;collapsible=1;childLayout=tableLayout;fixedRows=1;rowLines=0;fontStyle=1;align=center;resizeLast=1;html=1;" vertex="1" parent="1">
          <mxGeometry x="580" y="150" width="180" height="90" as="geometry" />
        </mxCell>
        <mxCell id="Khisi0PpgH30EakqjRYP-15" value="" style="shape=tableRow;horizontal=0;startSize=0;swimlaneHead=0;swimlaneBody=0;fillColor=none;collapsible=0;dropTarget=0;points=[[0,0.5],[1,0.5]];portConstraint=eastwest;top=0;left=0;right=0;bottom=1;" vertex="1" parent="Khisi0PpgH30EakqjRYP-14">
          <mxGeometry y="30" width="180" height="30" as="geometry" />
        </mxCell>
        <mxCell id="Khisi0PpgH30EakqjRYP-16" value="PK" style="shape=partialRectangle;connectable=0;fillColor=none;top=0;left=0;bottom=0;right=0;fontStyle=1;overflow=hidden;whiteSpace=wrap;html=1;" vertex="1" parent="Khisi0PpgH30EakqjRYP-15">
          <mxGeometry width="30" height="30" as="geometry">
            <mxRectangle width="30" height="30" as="alternateBounds" />
          </mxGeometry>
        </mxCell>
        <mxCell id="Khisi0PpgH30EakqjRYP-17" value="RegID" style="shape=partialRectangle;connectable=0;fillColor=none;top=0;left=0;bottom=0;right=0;align=left;spacingLeft=6;fontStyle=5;overflow=hidden;whiteSpace=wrap;html=1;" vertex="1" parent="Khisi0PpgH30EakqjRYP-15">
          <mxGeometry x="30" width="150" height="30" as="geometry">
            <mxRectangle width="150" height="30" as="alternateBounds" />
          </mxGeometry>
        </mxCell>
        <mxCell id="Khisi0PpgH30EakqjRYP-18" value="" style="shape=tableRow;horizontal=0;startSize=0;swimlaneHead=0;swimlaneBody=0;fillColor=none;collapsible=0;dropTarget=0;points=[[0,0.5],[1,0.5]];portConstraint=eastwest;top=0;left=0;right=0;bottom=0;" vertex="1" parent="Khisi0PpgH30EakqjRYP-14">
          <mxGeometry y="60" width="180" height="30" as="geometry" />
        </mxCell>
        <mxCell id="Khisi0PpgH30EakqjRYP-19" value="" style="shape=partialRectangle;connectable=0;fillColor=none;top=0;left=0;bottom=0;right=0;editable=1;overflow=hidden;whiteSpace=wrap;html=1;" vertex="1" parent="Khisi0PpgH30EakqjRYP-18">
          <mxGeometry width="30" height="30" as="geometry">
            <mxRectangle width="30" height="30" as="alternateBounds" />
          </mxGeometry>
        </mxCell>
        <mxCell id="Khisi0PpgH30EakqjRYP-20" value="Region" style="shape=partialRectangle;connectable=0;fillColor=none;top=0;left=0;bottom=0;right=0;align=left;spacingLeft=6;overflow=hidden;whiteSpace=wrap;html=1;" vertex="1" parent="Khisi0PpgH30EakqjRYP-18">
          <mxGeometry x="30" width="150" height="30" as="geometry">
            <mxRectangle width="150" height="30" as="alternateBounds" />
          </mxGeometry>
        </mxCell>
        <mxCell id="ENiRFmMlGKpMeC_L8ouY-1" value="" style="edgeStyle=orthogonalEdgeStyle;fontSize=12;html=1;endArrow=ERmandOne;startArrow=ERmandOne;rounded=0;entryX=0;entryY=0.5;entryDx=0;entryDy=0;" edge="1" parent="1" source="J8t7XFKCZNfc7hIhXayX-2" target="Khisi0PpgH30EakqjRYP-15">
          <mxGeometry width="100" height="100" relative="1" as="geometry">
            <mxPoint x="690" y="450" as="sourcePoint" />
            <mxPoint x="790" y="350" as="targetPoint" />
          </mxGeometry>
        </mxCell>
        <mxCell id="ENiRFmMlGKpMeC_L8ouY-2" value="" style="edgeStyle=orthogonalEdgeStyle;fontSize=12;html=1;endArrow=ERmandOne;startArrow=ERmandOne;rounded=0;entryX=0;entryY=0.5;entryDx=0;entryDy=0;exitX=0;exitY=0.5;exitDx=0;exitDy=0;" edge="1" parent="1" source="J8t7XFKCZNfc7hIhXayX-2" target="Khisi0PpgH30EakqjRYP-2">
          <mxGeometry width="100" height="100" relative="1" as="geometry">
            <mxPoint x="380" y="235" as="sourcePoint" />
            <mxPoint x="630" y="215" as="targetPoint" />
          </mxGeometry>
        </mxCell>
        <mxCell id="nC-FFdzKcqDXtj-KT77--1" value="POPULATION" style="shape=table;startSize=30;container=1;collapsible=1;childLayout=tableLayout;fixedRows=1;rowLines=0;fontStyle=1;align=center;resizeLast=1;html=1;" vertex="1" parent="1">
          <mxGeometry x="920" y="215" width="180" height="150" as="geometry" />
        </mxCell>
        <mxCell id="nC-FFdzKcqDXtj-KT77--2" value="" style="shape=tableRow;horizontal=0;startSize=0;swimlaneHead=0;swimlaneBody=0;fillColor=none;collapsible=0;dropTarget=0;points=[[0,0.5],[1,0.5]];portConstraint=eastwest;top=0;left=0;right=0;bottom=1;" vertex="1" parent="nC-FFdzKcqDXtj-KT77--1">
          <mxGeometry y="30" width="180" height="30" as="geometry" />
        </mxCell>
        <mxCell id="nC-FFdzKcqDXtj-KT77--3" value="PK" style="shape=partialRectangle;connectable=0;fillColor=none;top=0;left=0;bottom=0;right=0;fontStyle=1;overflow=hidden;whiteSpace=wrap;html=1;" vertex="1" parent="nC-FFdzKcqDXtj-KT77--2">
          <mxGeometry width="30" height="30" as="geometry">
            <mxRectangle width="30" height="30" as="alternateBounds" />
          </mxGeometry>
        </mxCell>
        <mxCell id="nC-FFdzKcqDXtj-KT77--4" value="PopID" style="shape=partialRectangle;connectable=0;fillColor=none;top=0;left=0;bottom=0;right=0;align=left;spacingLeft=6;fontStyle=5;overflow=hidden;whiteSpace=wrap;html=1;" vertex="1" parent="nC-FFdzKcqDXtj-KT77--2">
          <mxGeometry x="30" width="150" height="30" as="geometry">
            <mxRectangle width="150" height="30" as="alternateBounds" />
          </mxGeometry>
        </mxCell>
        <mxCell id="nC-FFdzKcqDXtj-KT77--5" value="" style="shape=tableRow;horizontal=0;startSize=0;swimlaneHead=0;swimlaneBody=0;fillColor=none;collapsible=0;dropTarget=0;points=[[0,0.5],[1,0.5]];portConstraint=eastwest;top=0;left=0;right=0;bottom=0;" vertex="1" parent="nC-FFdzKcqDXtj-KT77--1">
          <mxGeometry y="60" width="180" height="30" as="geometry" />
        </mxCell>
        <mxCell id="nC-FFdzKcqDXtj-KT77--6" value="" style="shape=partialRectangle;connectable=0;fillColor=none;top=0;left=0;bottom=0;right=0;editable=1;overflow=hidden;whiteSpace=wrap;html=1;" vertex="1" parent="nC-FFdzKcqDXtj-KT77--5">
          <mxGeometry width="30" height="30" as="geometry">
            <mxRectangle width="30" height="30" as="alternateBounds" />
          </mxGeometry>
        </mxCell>
        <mxCell id="nC-FFdzKcqDXtj-KT77--7" value="Population Number" style="shape=partialRectangle;connectable=0;fillColor=none;top=0;left=0;bottom=0;right=0;align=left;spacingLeft=6;overflow=hidden;whiteSpace=wrap;html=1;" vertex="1" parent="nC-FFdzKcqDXtj-KT77--5">
          <mxGeometry x="30" width="150" height="30" as="geometry">
            <mxRectangle width="150" height="30" as="alternateBounds" />
          </mxGeometry>
        </mxCell>
        <mxCell id="97qHrH30bLkBxy1KrBDj-1" value="" style="shape=tableRow;horizontal=0;startSize=0;swimlaneHead=0;swimlaneBody=0;fillColor=none;collapsible=0;dropTarget=0;points=[[0,0.5],[1,0.5]];portConstraint=eastwest;top=0;left=0;right=0;bottom=0;" vertex="1" parent="nC-FFdzKcqDXtj-KT77--1">
          <mxGeometry y="90" width="180" height="30" as="geometry" />
        </mxCell>
        <mxCell id="97qHrH30bLkBxy1KrBDj-2" value="" style="shape=partialRectangle;connectable=0;fillColor=none;top=0;left=0;bottom=0;right=0;editable=1;overflow=hidden;whiteSpace=wrap;html=1;" vertex="1" parent="97qHrH30bLkBxy1KrBDj-1">
          <mxGeometry width="30" height="30" as="geometry">
            <mxRectangle width="30" height="30" as="alternateBounds" />
          </mxGeometry>
        </mxCell>
        <mxCell id="97qHrH30bLkBxy1KrBDj-3" value="Male" style="shape=partialRectangle;connectable=0;fillColor=none;top=0;left=0;bottom=0;right=0;align=left;spacingLeft=6;overflow=hidden;whiteSpace=wrap;html=1;" vertex="1" parent="97qHrH30bLkBxy1KrBDj-1">
          <mxGeometry x="30" width="150" height="30" as="geometry">
            <mxRectangle width="150" height="30" as="alternateBounds" />
          </mxGeometry>
        </mxCell>
        <mxCell id="97qHrH30bLkBxy1KrBDj-4" value="" style="shape=tableRow;horizontal=0;startSize=0;swimlaneHead=0;swimlaneBody=0;fillColor=none;collapsible=0;dropTarget=0;points=[[0,0.5],[1,0.5]];portConstraint=eastwest;top=0;left=0;right=0;bottom=0;" vertex="1" parent="nC-FFdzKcqDXtj-KT77--1">
          <mxGeometry y="120" width="180" height="30" as="geometry" />
        </mxCell>
        <mxCell id="97qHrH30bLkBxy1KrBDj-5" value="" style="shape=partialRectangle;connectable=0;fillColor=none;top=0;left=0;bottom=0;right=0;editable=1;overflow=hidden;whiteSpace=wrap;html=1;" vertex="1" parent="97qHrH30bLkBxy1KrBDj-4">
          <mxGeometry width="30" height="30" as="geometry">
            <mxRectangle width="30" height="30" as="alternateBounds" />
          </mxGeometry>
        </mxCell>
        <mxCell id="97qHrH30bLkBxy1KrBDj-6" value="Female" style="shape=partialRectangle;connectable=0;fillColor=none;top=0;left=0;bottom=0;right=0;align=left;spacingLeft=6;overflow=hidden;whiteSpace=wrap;html=1;" vertex="1" parent="97qHrH30bLkBxy1KrBDj-4">
          <mxGeometry x="30" width="150" height="30" as="geometry">
            <mxRectangle width="150" height="30" as="alternateBounds" />
          </mxGeometry>
        </mxCell>
        <mxCell id="jjkGueH6D-gRvk3c8c0I-1" value="" style="edgeStyle=orthogonalEdgeStyle;fontSize=12;html=1;endArrow=ERmandOne;startArrow=ERmandOne;rounded=0;entryX=0;entryY=0.5;entryDx=0;entryDy=0;" edge="1" parent="1" source="Khisi0PpgH30EakqjRYP-15" target="nC-FFdzKcqDXtj-KT77--2">
          <mxGeometry width="100" height="100" relative="1" as="geometry">
            <mxPoint x="820" y="425" as="sourcePoint" />
            <mxPoint x="1030" y="395" as="targetPoint" />
          </mxGeometry>
        </mxCell>
      </root>
    </mxGraphModel>
  </diagram>
</mxfile>
